<svg preserveAspectRatio="none" overflow="visible" style="display: block;" width="32" height="32" viewBox="0 0 32 32" fill="none" xmlns="http://www.w3.org/2000/svg">
<g id="Background">
<rect width="32" height="32" rx="12" fill="#EEF2FF"/>
<path id="Icon" d="M13.2292 25L11.6667 22.4167L8.72917 21.75L9 18.75L7 16.5L9 14.25L8.72917 11.25L11.6667 10.5833L13.2292 8L16 9.1875L18.7708 8L20.3333 10.5833L23.2708 11.25L23 14.25L25 16.5L23 18.75L23.2708 21.75L20.3333 22.4167L18.7708 25L16 23.8125L13.2292 25V25M13.8333 23.1042L16 22.1875L18.1667 23.1042L19.375 21.0833L21.6667 20.5625L21.4583 18.25L23 16.5L21.4583 14.75L21.6667 12.4375L19.375 11.9167L18.1667 9.89583L16 10.8125L13.8333 9.89583L12.625 11.9167L10.3333 12.4167L10.5417 14.75L9 16.5L10.5625 18.25L10.3333 20.5833L12.625 21.1042L13.8333 23.1042V23.1042M16 16.5V16.5V16.5V16.5V16.5V16.5V16.5V16.5V16.5V16.5V16.5V16.5V16.5V16.5V16.5V16.5V16.5V16.5V16.5V16.5V16.5V16.5M14.9375 19.5L19.8958 14.5625L18.8333 13.5L14.9375 17.375L13.1667 15.625L12.1042 16.6875L14.9375 19.5V19.5" fill="#4F46E5"/>
</g>
</svg>
