<svg width="20" height="20" viewBox="0 0 20 20" fill="none" xmlns="http://www.w3.org/2000/svg">
<path d="M15.7732 8.33317V11.6665M11.4432 15.8332L12.8866 14.9998L14.3299 14.1665M8.55656 15.8332L7.11281 14.9998L5.66948 14.1665M4.22656 8.33317V11.6665M5.66948 5.83317L7.11323 4.99984L8.55656 4.1665M11.4432 4.1665L12.8866 4.99984L14.3299 5.83317" stroke="#E6E6E8" stroke-width="2" stroke-linecap="round" stroke-linejoin="round"/>
<path d="M10 18.3332C10.442 18.3332 10.866 18.1576 11.1785 17.845C11.4911 17.5325 11.6667 17.1085 11.6667 16.6665C11.6667 16.2245 11.4911 15.8006 11.1785 15.488C10.866 15.1754 10.442 14.9998 10 14.9998C9.55797 14.9998 9.13405 15.1754 8.82149 15.488C8.50893 15.8006 8.33333 16.2245 8.33333 16.6665C8.33333 17.1085 8.50893 17.5325 8.82149 17.845C9.13405 18.1576 9.55797 18.3332 10 18.3332ZM10 4.99984C10.442 4.99984 10.866 4.82424 11.1785 4.51168C11.4911 4.19912 11.6667 3.7752 11.6667 3.33317C11.6667 2.89114 11.4911 2.46722 11.1785 2.15466C10.866 1.8421 10.442 1.6665 10 1.6665C9.55797 1.6665 9.13405 1.8421 8.82149 2.15466C8.50893 2.46722 8.33333 2.89114 8.33333 3.33317C8.33333 3.7752 8.50893 4.19912 8.82149 4.51168C9.13405 4.82424 9.55797 4.99984 10 4.99984ZM10 11.6665C10.442 11.6665 10.866 11.4909 11.1785 11.1783C11.4911 10.8658 11.6667 10.4419 11.6667 9.99984C11.6667 9.55781 11.4911 9.13389 11.1785 8.82133C10.866 8.50877 10.442 8.33317 10 8.33317C9.55797 8.33317 9.13405 8.50877 8.82149 8.82133C8.50893 9.13389 8.33333 9.55781 8.33333 9.99984C8.33333 10.4419 8.50893 10.8658 8.82149 11.1783C9.13405 11.4909 9.55797 11.6665 10 11.6665ZM15.8333 8.33317C16.2754 8.33317 16.6993 8.15758 17.0118 7.84501C17.3244 7.53245 17.5 7.10853 17.5 6.6665C17.5 6.22448 17.3244 5.80055 17.0118 5.48799C16.6993 5.17543 16.2754 4.99984 15.8333 4.99984C15.3913 4.99984 14.9674 5.17543 14.6548 5.48799C14.3423 5.80055 14.1667 6.22448 14.1667 6.6665C14.1667 7.10853 14.3423 7.53245 14.6548 7.84501C14.9674 8.15758 15.3913 8.33317 15.8333 8.33317ZM15.8333 14.9998C16.2754 14.9998 16.6993 14.8242 17.0118 14.5117C17.3244 14.1991 17.5 13.7752 17.5 13.3332C17.5 12.8911 17.3244 12.4672 17.0118 12.1547C16.6993 11.8421 16.2754 11.6665 15.8333 11.6665C15.3913 11.6665 14.9674 11.8421 14.6548 12.1547C14.3423 12.4672 14.1667 12.8911 14.1667 13.3332C14.1667 13.7752 14.3423 14.1991 14.6548 14.5117C14.9674 14.8242 15.3913 14.9998 15.8333 14.9998ZM4.16667 8.33317C4.60869 8.33317 5.03262 8.15758 5.34518 7.84501C5.65774 7.53245 5.83333 7.10853 5.83333 6.6665C5.83333 6.22448 5.65774 5.80055 5.34518 5.48799C5.03262 5.17543 4.60869 4.99984 4.16667 4.99984C3.72464 4.99984 3.30072 5.17543 2.98816 5.48799C2.67559 5.80055 2.5 6.22448 2.5 6.6665C2.5 7.10853 2.67559 7.53245 2.98816 7.84501C3.30072 8.15758 3.72464 8.33317 4.16667 8.33317ZM4.16667 14.9998C4.60869 14.9998 5.03262 14.8242 5.34518 14.5117C5.65774 14.1991 5.83333 13.7752 5.83333 13.3332C5.83333 12.8911 5.65774 12.4672 5.34518 12.1547C5.03262 11.8421 4.60869 11.6665 4.16667 11.6665C3.72464 11.6665 3.30072 11.8421 2.98816 12.1547C2.67559 12.4672 2.5 12.8911 2.5 13.3332C2.5 13.7752 2.67559 14.1991 2.98816 14.5117C3.30072 14.8242 3.72464 14.9998 4.16667 14.9998Z" fill="#E6E6E8" stroke="#E6E6E8" stroke-width="2" stroke-linecap="round" stroke-linejoin="round"/>
</svg>
